<svg xmlns="http://www.w3.org/2000/svg" xmlns:xlink="http://www.w3.org/1999/xlink" viewBox="0 0 40 40" version="1.1"><title>FB09927C-DF4F-4FBA-BFBC-131DB517F427</title><g stroke="none" stroke-width="1" fill="none" fill-rule="evenodd"><g transform="translate(-727.000000, -702.000000)"><g transform="translate(59.000000, 285.000000)"><g transform="translate(668.000000, 363.000000)"><g transform="translate(0.000000, 54.000000)"><circle fill="#121029" cx="20" cy="20" r="20"/><g transform="translate(15.000000, 10.000000)" fill="#FFFFFF" fill-rule="nonzero"><g><path d="M10,0.131315226 C9.74025974,0.131315226 8.57142857,0 7.4025974,0 C4.80519481,0 2.98701299,1.57578271 2.98701299,4.5960329 L2.98701299,7.09102219 L0,7.09102219 L0,10.5052181 L2.98701299,10.5052181 L2.98701299,19.4346534 L6.49350649,19.4346534 L6.49350649,10.5052181 L9.48051948,10.5052181 L9.87012987,7.09102219 L6.49350649,7.09102219 L6.49350649,4.85866335 C6.49350649,3.80814154 6.75324675,3.15156542 8.18181818,3.15156542 L10,3.15156542 C10,3.15156542 10,0.131315226 10,0.131315226 Z"/></g></g></g></g></g></g></g></svg>